<svg xmlns="http://www.w3.org/2000/svg" viewBox="0 0 600 600" preserveAspectRatio="xMidYMid slice">
<rect width="600" height="600" fill="#000000"/>
<path d="M555.5585926426016,0 L555.5585926426016,75.55859264260162 L480,75.55859264260162 Z" fill="#80EF00"/>
<path d="M0,149.70154155111345 L69.70154155111346,149.70154155111345 L0,80 Z" fill="#80EF00"/>
<path d="M475.8470704024061,80 L475.8470704024061,155.84707040240608 L400,155.84707040240608 Z" fill="#80EF00"/>
<path d="M560,80 L637.9804195041997,80 L560,157.98041950419974 Z" fill="#80EF00"/>
<path d="M0,160 L70.28249915357515,160 L0,230.28249915357515 Z" fill="#80EF00"/>
<path d="M80,160 L157.33730087851893,160 L80,237.33730087851893 Z" fill="#80EF00"/>
<path d="M160,160 L234.22948937716893,160 L234.22948937716893,234.22948937716893 Z" fill="#80EF00"/>
<path d="M560,160 L636.4937154579754,160 L560,236.49371545797538 Z" fill="#80EF00"/>
<path d="M0,240 L74.15461569628476,240 L74.15461569628476,314.15461569628474 Z" fill="#80EF00"/>
<path d="M80,240 L152.8047976590219,240 L80,312.8047976590219 Z" fill="#80EF00"/>
<path d="M240,240 L318.1677172796336,240 L240,318.1677172796336 Z" fill="#80EF00"/>
<path d="M320,240 L399.12450578006553,240 L399.12450578006553,319.12450578006553 Z" fill="#80EF00"/>
<path d="M479.7643072940915,240 L479.7643072940915,319.7643072940915 L400,319.7643072940915 Z" fill="#80EF00"/>
<path d="M480,240 L554.7949009504428,240 L480,314.7949009504427 Z" fill="#80EF00"/>
<path d="M560,312.04271403734185 L632.0427140373419,312.04271403734185 L560,240 Z" fill="#80EF00"/>
<path d="M0,320 L79.56891459912516,320 L0,399.56891459912515 Z" fill="#80EF00"/>
<path d="M160,320 L236.48419235060032,320 L236.48419235060032,396.4841923506003 Z" fill="#80EF00"/>
<path d="M317.5642581421277,320 L317.5642581421277,397.5642581421277 L240,397.5642581421277 Z" fill="#80EF00"/>
<path d="M320,320 L393.36909853001225,320 L393.36909853001225,393.36909853001225 Z" fill="#80EF00"/>
<path d="M400,320 L473.03076594862773,320 L473.03076594862773,393.03076594862773 Z" fill="#80EF00"/>
<path d="M553.0490674069571,320 L553.0490674069571,393.0490674069571 L480,393.0490674069571 Z" fill="#80EF00"/>
<path d="M560,398.3720073077913 L638.3720073077914,398.3720073077913 L560,320 Z" fill="#80EF00"/>
<path d="M240,400 L312.73129564486464,400 L312.73129564486464,472.73129564486464 Z" fill="#80EF00"/>
<path d="M480,400 L550.5589204229302,400 L550.5589204229302,470.55892042293027 Z" fill="#80EF00"/>
<path d="M560,477.963473733931 L637.963473733931,477.963473733931 L560,400 Z" fill="#80EF00"/>
<path d="M0,480 L69.08140607554316,480 L0,549.0814060755431 Z" fill="#80EF00"/>
<path d="M160,552.4604485591187 L232.46044855911873,552.4604485591187 L160,480 Z" fill="#80EF00"/>
<path d="M0,560 L71.7297354556701,560 L71.7297354556701,631.7297354556702 Z" fill="#80EF00"/>
<path d="M80,560 L156.7046915760458,560 L156.7046915760458,636.7046915760458 Z" fill="#80EF00"/>
<path d="M160,560 L236.24368804247402,560 L236.24368804247402,636.243688042474 Z" fill="#80EF00"/>
<path d="M315.2424105774013,560 L315.2424105774013,635.2424105774013 L240,635.2424105774013 Z" fill="#80EF00"/>
<path d="M320,560 L389.30856716978815,560 L320,629.3085671697881 Z" fill="#80EF00"/>
<path d="M551.0837767798438,560 L551.0837767798438,631.0837767798438 L480,631.0837767798438 Z" fill="#80EF00"/>
</svg>